<svg xmlns="http://www.w3.org/2000/svg" width="1200" height="560" viewBox="0 0 1200 560">
<rect width="100%" height="100%" fill="white"/>
<text x="600" y="34" text-anchor="middle" font-size="22" font-family="Arial" font-weight="bold">Desafio 2 - Box Plots por infected</text>
<rect x="80" y="80" width="500" height="420" fill="none" stroke="#bbbbbb"/>
<text x="330.0" y="66" text-anchor="middle" font-size="18" font-family="Arial">Peso (wtkg)</text>
<line x1="120" y1="460.0" x2="560" y2="460.0" stroke="#efefef"/>
<text x="114" y="464.0" text-anchor="end" font-size="11" font-family="Arial">31.0</text>
<line x1="120" y1="388.0" x2="560" y2="388.0" stroke="#efefef"/>
<text x="114" y="392.0" text-anchor="end" font-size="11" font-family="Arial">56.8</text>
<line x1="120" y1="316.0" x2="560" y2="316.0" stroke="#efefef"/>
<text x="114" y="320.0" text-anchor="end" font-size="11" font-family="Arial">82.6</text>
<line x1="120" y1="244.0" x2="560" y2="244.0" stroke="#efefef"/>
<text x="114" y="248.0" text-anchor="end" font-size="11" font-family="Arial">108.4</text>
<line x1="120" y1="172.0" x2="560" y2="172.0" stroke="#efefef"/>
<text x="114" y="176.0" text-anchor="end" font-size="11" font-family="Arial">134.2</text>
<line x1="120" y1="100.0" x2="560" y2="100.0" stroke="#efefef"/>
<text x="114" y="104.0" text-anchor="end" font-size="11" font-family="Arial">159.9</text>
<line x1="120" y1="100" x2="120" y2="460" stroke="#222"/>
<line x1="120" y1="460" x2="560" y2="460" stroke="#222"/>
<text x="112" y="98" text-anchor="end" font-size="11" font-family="Arial">kg</text>
<rect x="242.0" y="316.8" width="56.0" height="44.0" fill="#1f77b4" fill-opacity="0.35" stroke="#1f77b4"/>
<line x1="242.0" y1="340.1" x2="298.0" y2="340.1" stroke="#111" stroke-width="2"/>
<line x1="270.0" y1="316.8" x2="270.0" y2="250.9" stroke="#222"/>
<line x1="270.0" y1="360.8" x2="270.0" y2="426.5" stroke="#222"/>
<line x1="256.0" y1="250.9" x2="284.0" y2="250.9" stroke="#222"/>
<line x1="256.0" y1="426.5" x2="284.0" y2="426.5" stroke="#222"/>
<circle cx="270.0" cy="455.4" r="2.3" fill="#cc0000"/>
<circle cx="270.0" cy="443.8" r="2.3" fill="#cc0000"/>
<circle cx="270.0" cy="432.1" r="2.3" fill="#cc0000"/>
<circle cx="270.0" cy="432.1" r="2.3" fill="#cc0000"/>
<circle cx="270.0" cy="431.9" r="2.3" fill="#cc0000"/>
<circle cx="270.0" cy="431.3" r="2.3" fill="#cc0000"/>
<circle cx="270.0" cy="431.0" r="2.3" fill="#cc0000"/>
<circle cx="270.0" cy="428.1" r="2.3" fill="#cc0000"/>
<circle cx="270.0" cy="247.5" r="2.3" fill="#cc0000"/>
<circle cx="270.0" cy="243.9" r="2.3" fill="#cc0000"/>
<circle cx="270.0" cy="242.6" r="2.3" fill="#cc0000"/>
<circle cx="270.0" cy="242.6" r="2.3" fill="#cc0000"/>
<circle cx="270.0" cy="241.3" r="2.3" fill="#cc0000"/>
<circle cx="270.0" cy="240.8" r="2.3" fill="#cc0000"/>
<circle cx="270.0" cy="238.2" r="2.3" fill="#cc0000"/>
<circle cx="270.0" cy="237.5" r="2.3" fill="#cc0000"/>
<circle cx="270.0" cy="237.5" r="2.3" fill="#cc0000"/>
<circle cx="270.0" cy="236.6" r="2.3" fill="#cc0000"/>
<circle cx="270.0" cy="236.3" r="2.3" fill="#cc0000"/>
<circle cx="270.0" cy="235.6" r="2.3" fill="#cc0000"/>
<circle cx="270.0" cy="235.0" r="2.3" fill="#cc0000"/>
<circle cx="270.0" cy="232.5" r="2.3" fill="#cc0000"/>
<circle cx="270.0" cy="232.5" r="2.3" fill="#cc0000"/>
<circle cx="270.0" cy="229.9" r="2.3" fill="#cc0000"/>
<circle cx="270.0" cy="229.9" r="2.3" fill="#cc0000"/>
<circle cx="270.0" cy="227.4" r="2.3" fill="#cc0000"/>
<circle cx="270.0" cy="226.8" r="2.3" fill="#cc0000"/>
<circle cx="270.0" cy="226.1" r="2.3" fill="#cc0000"/>
<circle cx="270.0" cy="224.9" r="2.3" fill="#cc0000"/>
<circle cx="270.0" cy="224.0" r="2.3" fill="#cc0000"/>
<circle cx="270.0" cy="223.6" r="2.3" fill="#cc0000"/>
<circle cx="270.0" cy="223.0" r="2.3" fill="#cc0000"/>
<circle cx="270.0" cy="219.8" r="2.3" fill="#cc0000"/>
<circle cx="270.0" cy="217.3" r="2.3" fill="#cc0000"/>
<circle cx="270.0" cy="216.0" r="2.3" fill="#cc0000"/>
<circle cx="270.0" cy="212.3" r="2.3" fill="#cc0000"/>
<circle cx="270.0" cy="209.7" r="2.3" fill="#cc0000"/>
<circle cx="270.0" cy="204.6" r="2.3" fill="#cc0000"/>
<circle cx="270.0" cy="202.1" r="2.3" fill="#cc0000"/>
<circle cx="270.0" cy="195.7" r="2.3" fill="#cc0000"/>
<circle cx="270.0" cy="191.9" r="2.3" fill="#cc0000"/>
<circle cx="270.0" cy="190.0" r="2.3" fill="#cc0000"/>
<circle cx="270.0" cy="186.4" r="2.3" fill="#cc0000"/>
<circle cx="270.0" cy="181.8" r="2.3" fill="#cc0000"/>
<circle cx="270.0" cy="169.1" r="2.3" fill="#cc0000"/>
<circle cx="270.0" cy="100.0" r="2.3" fill="#cc0000"/>
<rect x="402.0" y="314.8" width="56.0" height="44.3" fill="#ff7f0e" fill-opacity="0.35" stroke="#ff7f0e"/>
<line x1="402.0" y1="338.0" x2="458.0" y2="338.0" stroke="#111" stroke-width="2"/>
<line x1="430.0" y1="314.8" x2="430.0" y2="250.8" stroke="#222"/>
<line x1="430.0" y1="359.1" x2="430.0" y2="420.9" stroke="#222"/>
<line x1="416.0" y1="250.8" x2="444.0" y2="250.8" stroke="#222"/>
<line x1="416.0" y1="420.9" x2="444.0" y2="420.9" stroke="#222"/>
<circle cx="430.0" cy="460.0" r="2.3" fill="#cc0000"/>
<circle cx="430.0" cy="246.4" r="2.3" fill="#cc0000"/>
<circle cx="430.0" cy="233.8" r="2.3" fill="#cc0000"/>
<circle cx="430.0" cy="232.5" r="2.3" fill="#cc0000"/>
<circle cx="430.0" cy="231.8" r="2.3" fill="#cc0000"/>
<circle cx="430.0" cy="213.5" r="2.3" fill="#cc0000"/>
<circle cx="430.0" cy="209.7" r="2.3" fill="#cc0000"/>
<circle cx="430.0" cy="130.5" r="2.3" fill="#cc0000"/>
<text x="270.0" y="480" text-anchor="middle" font-size="12" font-family="Arial">infected=0</text>
<text x="430.0" y="480" text-anchor="middle" font-size="12" font-family="Arial">infected=1</text>
<rect x="640" y="80" width="500" height="420" fill="none" stroke="#bbbbbb"/>
<text x="890.0" y="66" text-anchor="middle" font-size="18" font-family="Arial">Idade (age)</text>
<line x1="680" y1="460.0" x2="1120" y2="460.0" stroke="#efefef"/>
<text x="674" y="464.0" text-anchor="end" font-size="11" font-family="Arial">12.0</text>
<line x1="680" y1="388.0" x2="1120" y2="388.0" stroke="#efefef"/>
<text x="674" y="392.0" text-anchor="end" font-size="11" font-family="Arial">23.6</text>
<line x1="680" y1="316.0" x2="1120" y2="316.0" stroke="#efefef"/>
<text x="674" y="320.0" text-anchor="end" font-size="11" font-family="Arial">35.2</text>
<line x1="680" y1="244.0" x2="1120" y2="244.0" stroke="#efefef"/>
<text x="674" y="248.0" text-anchor="end" font-size="11" font-family="Arial">46.8</text>
<line x1="680" y1="172.0" x2="1120" y2="172.0" stroke="#efefef"/>
<text x="674" y="176.0" text-anchor="end" font-size="11" font-family="Arial">58.4</text>
<line x1="680" y1="100.0" x2="1120" y2="100.0" stroke="#efefef"/>
<text x="674" y="104.0" text-anchor="end" font-size="11" font-family="Arial">70.0</text>
<line x1="680" y1="100" x2="680" y2="460" stroke="#222"/>
<line x1="680" y1="460" x2="1120" y2="460" stroke="#222"/>
<text x="672" y="98" text-anchor="end" font-size="11" font-family="Arial">anos</text>
<rect x="802.0" y="286.2" width="56.0" height="68.3" fill="#1f77b4" fill-opacity="0.35" stroke="#1f77b4"/>
<line x1="802.0" y1="323.4" x2="858.0" y2="323.4" stroke="#111" stroke-width="2"/>
<line x1="830.0" y1="286.2" x2="830.0" y2="186.9" stroke="#222"/>
<line x1="830.0" y1="354.5" x2="830.0" y2="453.8" stroke="#222"/>
<line x1="816.0" y1="186.9" x2="844.0" y2="186.9" stroke="#222"/>
<line x1="816.0" y1="453.8" x2="844.0" y2="453.8" stroke="#222"/>
<circle cx="830.0" cy="460.0" r="2.3" fill="#cc0000"/>
<circle cx="830.0" cy="460.0" r="2.3" fill="#cc0000"/>
<circle cx="830.0" cy="180.7" r="2.3" fill="#cc0000"/>
<circle cx="830.0" cy="180.7" r="2.3" fill="#cc0000"/>
<circle cx="830.0" cy="174.5" r="2.3" fill="#cc0000"/>
<circle cx="830.0" cy="174.5" r="2.3" fill="#cc0000"/>
<circle cx="830.0" cy="174.5" r="2.3" fill="#cc0000"/>
<circle cx="830.0" cy="174.5" r="2.3" fill="#cc0000"/>
<circle cx="830.0" cy="168.3" r="2.3" fill="#cc0000"/>
<circle cx="830.0" cy="168.3" r="2.3" fill="#cc0000"/>
<circle cx="830.0" cy="168.3" r="2.3" fill="#cc0000"/>
<circle cx="830.0" cy="168.3" r="2.3" fill="#cc0000"/>
<circle cx="830.0" cy="162.1" r="2.3" fill="#cc0000"/>
<circle cx="830.0" cy="162.1" r="2.3" fill="#cc0000"/>
<circle cx="830.0" cy="162.1" r="2.3" fill="#cc0000"/>
<circle cx="830.0" cy="149.7" r="2.3" fill="#cc0000"/>
<circle cx="830.0" cy="149.7" r="2.3" fill="#cc0000"/>
<circle cx="830.0" cy="149.7" r="2.3" fill="#cc0000"/>
<circle cx="830.0" cy="149.7" r="2.3" fill="#cc0000"/>
<circle cx="830.0" cy="143.4" r="2.3" fill="#cc0000"/>
<circle cx="830.0" cy="143.4" r="2.3" fill="#cc0000"/>
<circle cx="830.0" cy="143.4" r="2.3" fill="#cc0000"/>
<circle cx="830.0" cy="143.4" r="2.3" fill="#cc0000"/>
<circle cx="830.0" cy="137.2" r="2.3" fill="#cc0000"/>
<circle cx="830.0" cy="137.2" r="2.3" fill="#cc0000"/>
<circle cx="830.0" cy="131.0" r="2.3" fill="#cc0000"/>
<circle cx="830.0" cy="112.4" r="2.3" fill="#cc0000"/>
<circle cx="830.0" cy="106.2" r="2.3" fill="#cc0000"/>
<circle cx="830.0" cy="100.0" r="2.3" fill="#cc0000"/>
<circle cx="830.0" cy="100.0" r="2.3" fill="#cc0000"/>
<rect x="962.0" y="273.8" width="56.0" height="74.5" fill="#ff7f0e" fill-opacity="0.35" stroke="#ff7f0e"/>
<line x1="962.0" y1="317.2" x2="1018.0" y2="317.2" stroke="#111" stroke-width="2"/>
<line x1="990.0" y1="273.8" x2="990.0" y2="168.3" stroke="#222"/>
<line x1="990.0" y1="348.3" x2="990.0" y2="460.0" stroke="#222"/>
<line x1="976.0" y1="168.3" x2="1004.0" y2="168.3" stroke="#222"/>
<line x1="976.0" y1="460.0" x2="1004.0" y2="460.0" stroke="#222"/>
<circle cx="990.0" cy="155.9" r="2.3" fill="#cc0000"/>
<circle cx="990.0" cy="155.9" r="2.3" fill="#cc0000"/>
<circle cx="990.0" cy="149.7" r="2.3" fill="#cc0000"/>
<circle cx="990.0" cy="143.4" r="2.3" fill="#cc0000"/>
<circle cx="990.0" cy="143.4" r="2.3" fill="#cc0000"/>
<circle cx="990.0" cy="131.0" r="2.3" fill="#cc0000"/>
<circle cx="990.0" cy="131.0" r="2.3" fill="#cc0000"/>
<circle cx="990.0" cy="124.8" r="2.3" fill="#cc0000"/>
<circle cx="990.0" cy="118.6" r="2.3" fill="#cc0000"/>
<circle cx="990.0" cy="118.6" r="2.3" fill="#cc0000"/>
<circle cx="990.0" cy="112.4" r="2.3" fill="#cc0000"/>
<text x="830.0" y="480" text-anchor="middle" font-size="12" font-family="Arial">infected=0</text>
<text x="990.0" y="480" text-anchor="middle" font-size="12" font-family="Arial">infected=1</text>
</svg>